PathFileType	4	(X/Y/Z)	C:\Users\Biomechanik\SynologyDrive\AlexP\Athlete_03\Athlete_3_25_03_31\Walking_07\marker_experimental.trc
DataRate	CameraRate	NumFrames	NumMarkers	Units	OrigDataRate	OrigDataStartFrame	OrigNumFrames
200.000000	200.000000	4	53	mm	200.000000	0	450
Frame#	Time	GLAB			RFHD			LFHD			C7			T6			SPINMOL			SPINM2			SPINM3			T12			BELTOL			BELT2			BELT3			SACROL			SACR2			SACR3			LTHOL			LTH2			LTH3			LSHAOL			LSHA2			LSHA3			LHEE			LTOE			LM5			RTHOL			RTH2			RTH3			RSHAOL			RSHA2			RSHA3			RHEE			RTOE			RM5			STRN			XIPH			LACR			LUAOL			LUA2			LUA3			LLAOL			LLA2			LLA3			LWRR			LWRU			RACR			RUAOL			RUA2			RUA3			RLAOL			RLA2			RLA3			RWRR			RWRU			
		X1	Y1	Z1	X2	Y2	Z2	X3	Y3	Z3	X4	Y4	Z4	X5	Y5	Z5	X6	Y6	Z6	X7	Y7	Z7	X8	Y8	Z8	X9	Y9	Z9	X10	Y10	Z10	X11	Y11	Z11	X12	Y12	Z12	X13	Y13	Z13	X14	Y14	Z14	X15	Y15	Z15	X16	Y16	Z16	X17	Y17	Z17	X18	Y18	Z18	X19	Y19	Z19	X20	Y20	Z20	X21	Y21	Z21	X22	Y22	Z22	X23	Y23	Z23	X24	Y24	Z24	X25	Y25	Z25	X26	Y26	Z26	X27	Y27	Z27	X28	Y28	Z28	X29	Y29	Z29	X30	Y30	Z30	X31	Y31	Z31	X32	Y32	Z32	X33	Y33	Z33	X34	Y34	Z34	X35	Y35	Z35	X36	Y36	Z36	X37	Y37	Z37	X38	Y38	Z38	X39	Y39	Z39	X40	Y40	Z40	X41	Y41	Z41	X42	Y42	Z42	X43	Y43	Z43	X44	Y44	Z44	X45	Y45	Z45	X46	Y46	Z46	X47	Y47	Z47	X48	Y48	Z48	X49	Y49	Z49	X50	Y50	Z50	X51	Y51	Z51	X52	Y52	Z52	X53	Y53	Z53	

1	0	-459.2019958496095	1570.7373046875	260.7820129394531	-514.280212402344	1592.4404296875	322.9681091308593	-499.8815002441408	1595.0361328125	186.1957702636718	-681.9445190429689	1407.98876953125	232.2117919921874	-741.9898681640626	1240.640747070312	226.5671997070311	-750.1508789062501	1199.99951171875	205.7574462890624	-755.7639770507814	1193.011596679688	255.4378356933592	-745.9091186523439	1136.08251953125	222.3551177978514	-720.5722656250001	1070.081298828125	226.7190551757811	-758.2015991210939	1037.080810546875	218.491241455078	-754.3915405273439	1033.36181640625	268.6705322265624	-762.4892578125001	974.3095092773438	238.4124145507811	-747.5888061523439	934.7604370117188	223.871627807617	-738.0897216796875	927.6033325195312	273.8190917968749	-763.602783203125	873.6318969726562	244.9479064941405	-734.8867797851562	676.412841796875	50.86803054809557	-793.5484008789062	639.2250366210938	89.86334228515611	-753.1732788085938	620.2372436523438	68.29162597656236	-867.56103515625	346.1641235351562	71.93692016601547	-937.0602416992188	310.6425170898437	83.93725585937483	-890.869140625	290.3843383789062	82.53910827636702	-1036.96044921875	143.0045623779296	177.1442718505857	-846.0990600585938	38.23734283447261	177.8513183593749	-889.9837036132812	33.4885520935058	77.33083343505842	-567.9324951171876	641.2788696289062	415.8168029785155	-494.5509033203126	613.6119995117188	428.7522583007811	-534.6226806640626	592.07958984375	406.3681030273436	-443.8777160644532	314.1608581542969	405.0805969238281	-383.2947082519532	263.7094421386719	412.3736267089843	-428.3998107910157	255.6526794433593	392.3799133300781	-346.7120361328126	43.58150482177732	300.8644714355468	-156.3572082519532	128.7759552001953	320.3504638671874	-190.3358459472657	80.43217468261717	415.9880065917968	-510.2553100585939	1304.011474609375	241.0671234130859	-495.7518005371095	1160.767333984375	234.5328674316405	-591.1255493164064	1376.021728515625	65.08122253417957	-562.7527465820314	1231.881591796875	-39.16443252563487	-559.3840332031251	1169.915283203125	-60.10130310058604	-518.0673217773439	1185.317138671875	-35.92372512817392	-425.9051818847657	1005.647827148438	-76.04654693603524	-413.8347778320313	930.2538452148438	-55.68083572387703	-380.3999938964844	967.0242309570312	-62.4605789184571	-296.9599304199219	909.1406860351562	-39.7394752502442	-285.3763732910157	947.5787353515625	28.55392265319819	-609.6606445312502	1359.24658203125	405.1533203124999	-655.7569580078127	1216.041625976562	500.1437988281249	-642.636657714844	1152.766479492188	514.2984619140624	-692.793640136719	1163.45458984375	517.5560302734374	-692.2526855468752	943.9994506835938	561.3755493164061	-649.4733276367189	890.3163452148438	600.1917114257811	-686.8756103515626	881.822021484375	568.7554931640624	-659.0532836914064	798.41796875	592.3846435546874	-607.3264160156251	778.6487426757812	532.4526977539061	
2	0.005	-455.1186523437502	1570.518676757812	261.4421997070312	-510.155487060547	1592.20458984375	323.6679077148436	-495.842010498047	1594.820678710938	186.8788146972655	-677.8080444335939	1407.70751953125	233.0326690673827	-737.7847290039064	1240.347412109375	227.2973632812499	-745.9411010742189	1199.707763671875	206.4732666015624	-751.5379638671876	1192.702880859375	256.1521911621093	-741.6816406250001	1135.7880859375	223.048873901367	-716.2864990234376	1069.752807617188	227.3582153320311	-753.8165283203126	1036.608154296875	219.1241760253905	-749.9896240234376	1032.88916015625	269.2982177734374	-758.0299682617189	973.8350219726562	239.039108276367	-743.1950683593751	934.324462890625	224.377471923828	-733.6610717773438	927.1796875	274.3259887695311	-759.0997924804688	873.1701049804688	245.4604644775389	-730.6885986328125	676.2496337890625	51.09642410278307	-789.3013916015625	639.0670776367188	90.20388793945298	-748.9713745117188	620.068115234375	68.54262542724595	-864.4263305664062	346.7699584960937	71.79221343994125	-934.2080688476562	311.8318481445312	83.84132385253889	-888.1531372070312	291.1784667968749	82.44966888427719	-1035.076171875	145.2185974121093	177.0649108886717	-846.1585083007812	38.02679061889643	177.9067993164061	-889.631591796875	33.58711624145502	77.27549743652328	-563.0533447265626	641.4200439453125	416.3314208984374	-489.539031982422	613.78564453125	428.8684997558593	-529.7830200195314	592.0733642578125	406.8467712402343	-440.2728881835938	313.934814453125	405.1695556640624	-380.1050720214844	263.1566467285156	412.3443298339843	-425.2279052734376	255.3608703613281	392.3712158203124	-345.4093627929688	43.39316940307615	300.7202148437499	-154.2710876464844	126.0006866455078	319.8418884277344	-188.6331481933595	78.32870483398436	415.5527648925781	-506.0720520019532	1303.752319335938	241.7487487792968	-491.4625854492189	1160.544799804688	235.1394958496093	-586.9959716796876	1375.807250976562	65.85620117187489	-558.6041259765626	1231.738403320312	-38.40923690795908	-555.2835083007814	1169.785888671875	-59.47469329833994	-514.0214843750001	1185.041381835938	-35.15417480468759	-422.1938781738282	1005.330261230469	-75.48669433593757	-410.1752014160157	929.8995971679688	-55.17668151855477	-376.7242126464844	966.6516723632812	-61.93929290771491	-293.3103942871094	908.7013549804688	-39.21604156494146	-281.7688293457032	947.0580444335938	29.14929008483881	-605.4231567382815	1358.864868164062	405.918487548828	-651.5122680664065	1215.544799804688	500.7778015136718	-638.437683105469	1152.276000976562	514.9124755859374	-688.5534667968752	1162.9560546875	518.1382446289061	-688.1585693359377	943.473876953125	561.7416992187499	-645.4647216796876	889.7127685546875	600.5312499999999	-682.8674316406251	881.287841796875	569.0809326171874	-655.1458129882814	797.8426513671875	592.6486206054686	-603.5339965820314	778.0316162109375	532.6558837890624	
3	0.01	-450.4238586425783	1570.30078125	262.1970520019531	-505.4124755859377	1591.97021484375	324.4695434570311	-491.1992492675783	1594.601806640625	187.6604614257812	-673.0542602539064	1407.417114257812	233.9828491210936	-732.9483032226564	1240.0419921875	228.1405487060545	-741.0977172851564	1199.403442382812	207.2968902587889	-746.6770019531251	1192.377319335938	256.9739990234374	-736.8148193359376	1135.479858398438	223.8455505371092	-711.3573608398439	1069.406616210938	228.0875244140624	-748.7491455078126	1036.092163085938	219.8305053710936	-744.9121093750001	1032.37646484375	269.9999999999999	-752.8786621093751	973.317626953125	239.7412872314452	-738.1454467773439	933.8387451171875	224.9413452148436	-728.5770874023438	926.7210083007812	274.8926696777343	-753.9015502929688	872.653564453125	246.0407409667967	-725.7965087890625	676.04638671875	51.36846923828111	-784.3377075195312	638.8521118164062	90.61074066162095	-744.0604858398438	619.8533935546875	68.83551025390611	-860.7120361328125	347.4775085449218	71.61853790283187	-930.8109130859375	313.2164306640624	83.74489593505842	-884.9188842773438	292.1071777343749	82.33908843994125	-1032.745849609375	147.8151702880859	176.9826354980467	-846.2216186523438	37.80017089843745	177.9832763671874	-889.2098388671875	33.7213630676269	77.21999359130844	-557.5148925781251	641.6192016601562	416.9132690429686	-483.860076904297	614.0038452148438	429.0186767578124	-524.2910766601564	592.1085205078125	407.3977966308593	-436.1347656250001	313.7485961914062	405.3180541992187	-376.4302368164063	262.5806884765625	412.3484191894531	-421.5858764648438	255.0990753173828	392.4132690429687	-343.9728088378907	43.26738357543943	300.5904846191406	-151.9252319335938	122.8224868774414	319.2821655273438	-186.7381439208985	75.93080902099608	415.0769958496093	-501.2640686035157	1303.489868164062	242.5394134521484	-486.5277099609376	1160.326171875	235.8479919433593	-582.2509155273439	1375.584594726562	66.74931335449207	-553.8476562500001	1231.591064453125	-37.53682327270518	-550.5859375000001	1169.66064453125	-58.75736618042002	-509.3830871582032	1184.742919921875	-34.26552963256845	-417.9659118652344	1004.967468261719	-74.84488677978523	-406.0171813964844	929.49169921875	-54.60843276977546	-372.5412902832032	966.218017578125	-61.34437179565437	-289.1680603027344	908.1751098632812	-38.63257980346685	-277.6653137207032	946.4290161132812	29.81795310974116	-600.548034667969	1358.455444335938	406.8035888671874	-646.6195068359377	1214.996826171875	501.5122680664061	-633.588806152344	1151.727905273438	515.6126098632811	-683.665954589844	1162.403930664062	518.8144531249999	-683.4277954101565	942.8917846679688	562.1633300781249	-640.8302612304689	889.0372924804688	600.9178466796874	-678.2346801757814	880.6947631835938	569.4523925781249	-650.6312255859376	797.2032470703125	592.9494628906249	-599.1546630859376	777.3460693359375	532.8814086914061	
4	0.015	-445.1541442871095	1570.095947265625	263.0393066406249	-500.0876464843752	1591.7509765625	325.3653259277343	-485.9898376464845	1594.390747070312	188.533477783203	-667.7206420898439	1407.130249023438	235.0565490722655	-727.5180053710939	1239.737060546875	229.0907897949217	-735.6577148437501	1199.098754882812	208.2215118408202	-741.2185668945314	1192.046630859375	257.8964233398436	-731.3449096679689	1135.169921875	224.7379913330077	-705.8234252929689	1069.0556640625	228.8985290527342	-743.0321655273439	1035.546875	220.5975189208983	-739.1944580078126	1031.8388671875	270.7636718749999	-747.0694580078126	972.7716064453125	240.5073242187499	-732.4809570312501	933.3121948242188	225.5529174804686	-722.8807983398438	926.239990234375	275.5093994140624	-748.0430908203125	872.0911254882812	246.6811370849608	-720.2286376953125	675.7996826171875	51.68465042114244	-778.671142578125	638.5709838867188	91.0850448608397	-738.4542846679688	619.5882568359375	69.16875457763658	-856.4122924804688	348.2847900390624	71.41470336914047	-926.8580322265625	314.7903747558593	83.65330505371077	-881.1561889648438	293.1680603027343	82.20570373535141	-1029.935668945312	150.789566040039	176.9003906249998	-846.2841796875	37.56476211547847	178.083541870117	-888.71630859375	33.89805603027338	77.16760253906234	-551.3817749023439	641.8862915039062	417.5553894042968	-477.5835876464845	614.2723999023438	429.2073364257811	-518.2104492187501	592.1971435546875	408.0173339843749	-431.4960021972657	313.62744140625	405.5404968261718	-372.2978210449219	262.0086669921875	412.3999023437499	-417.5024414062501	254.8936004638672	392.5234985351562	-342.4296264648438	43.22956466674803	300.4869384765624	-149.3532257080079	119.2753448486328	318.684326171875	-184.6842498779298	73.26721191406249	414.5729370117187	-495.8695068359376	1303.237182617188	243.4349517822265	-480.9854431152345	1160.124633789062	236.6560974121093	-576.9284667968751	1375.363159179688	67.7539062499999	-548.5250854492189	1231.446533203125	-36.55299377441416	-545.3322143554689	1169.546997070312	-57.95623779296885	-504.1929321289063	1184.43017578125	-33.26348495483408	-413.2664184570313	1004.563537597656	-74.1264953613282	-401.4088439941407	929.0336303710938	-53.98346710205085	-367.8974304199219	965.7252197265625	-60.68248748779304	-284.5819091796876	907.559814453125	-37.99941253662114	-273.1115112304688	945.6875610351562	30.54972076416011	-595.0728149414065	1358.030883789062	407.8034057617186	-641.1128540039065	1214.409790039062	502.3429260253905	-628.1223144531252	1151.133056640625	516.3929443359374	-678.1651611328127	1161.809448242188	519.5814208984374	-678.0898437500002	942.2650756835938	562.6370849609374	-635.5980834960939	888.3016967773438	601.3472290039061	-673.0060424804689	880.05419921875	569.8663330078124	-645.5380249023439	796.5120849609375	593.2840576171874	-594.2165527343751	776.6051635742188	533.1251220703124	
